<svg width="101" height="115" viewBox="0 0 101 115" fill="none" xmlns="http://www.w3.org/2000/svg">
<path d="M1.86432 33.7043C1.86432 34.9762 1.0328 35.9301 -0.075899 35.9301C-1.18459 35.9301 -2.01611 34.9762 -2.01611 33.7043C-2.01611 32.4324 -1.18459 31.4785 -0.075899 31.4785C1.0328 31.4785 1.86432 32.5384 1.86432 33.7043Z" fill="#FFCF2D"/>
<path d="M18.4024 33.7043C18.4024 34.9762 17.5709 35.9301 16.4622 35.9301C15.3535 35.9301 14.522 34.9762 14.522 33.7043C14.522 32.4324 15.3535 31.4785 16.4622 31.4785C17.5709 31.4785 18.4024 32.5384 18.4024 33.7043Z" fill="#FFCF2D"/>
<path d="M34.94 33.7043C34.94 34.9762 34.1085 35.9301 32.9998 35.9301C31.8911 35.9301 31.0596 34.9762 31.0596 33.7043C31.0596 32.4324 31.8911 31.4785 32.9998 31.4785C34.0161 31.4785 34.94 32.5384 34.94 33.7043Z" fill="#FFCF2D"/>
<path d="M51.4781 33.7043C51.4781 34.9762 50.6466 35.9301 49.5379 35.9301C48.4292 35.9301 47.5977 34.9762 47.5977 33.7043C47.5977 32.4324 48.4292 31.4785 49.5379 31.4785C50.6466 31.4785 51.4781 32.5384 51.4781 33.7043Z" fill="#FFCF2D"/>
<path d="M67.9239 33.7043C67.9239 34.9762 67.0924 35.9301 65.9837 35.9301C64.875 35.9301 64.0435 34.9762 64.0435 33.7043C64.0435 32.4324 64.875 31.4785 65.9837 31.4785C67.0924 31.4785 67.9239 32.5384 67.9239 33.7043Z" fill="#FFCF2D"/>
<path d="M84.462 33.7043C84.462 34.9762 83.6304 35.9301 82.5218 35.9301C81.4131 35.9301 80.5815 34.9762 80.5815 33.7043C80.5815 32.4324 81.4131 31.4785 82.5218 31.4785C83.6304 31.4785 84.462 32.5384 84.462 33.7043Z" fill="#FFCF2D"/>
<path d="M101 33.7042C101 34.9761 100.169 35.9299 99.0598 35.9299C97.9511 35.9299 97.1196 34.9761 97.1196 33.7042C97.1196 32.4324 97.9511 31.4785 99.0598 31.4785C100.076 31.4785 101 32.5384 101 33.7042Z" fill="#FFCF2D"/>
<path d="M1.86432 49.4974C1.86432 50.7693 1.0328 51.7233 -0.075899 51.7233C-1.18459 51.7233 -2.01611 50.7693 -2.01611 49.4974C-2.01611 48.2254 -1.18459 47.2715 -0.075899 47.2715C1.0328 47.2715 1.86432 48.2254 1.86432 49.4974Z" fill="#FFCF2D"/>
<path d="M18.4024 49.4974C18.4024 50.7693 17.5709 51.7233 16.4622 51.7233C15.3535 51.7233 14.522 50.7693 14.522 49.4974C14.522 48.2254 15.3535 47.2715 16.4622 47.2715C17.5709 47.2715 18.4024 48.2254 18.4024 49.4974Z" fill="#FFCF2D"/>
<path d="M34.94 49.4974C34.94 50.7693 34.1085 51.7233 32.9998 51.7233C31.8911 51.7233 31.0596 50.7693 31.0596 49.4974C31.0596 48.2254 31.8911 47.2715 32.9998 47.2715C34.0161 47.2715 34.94 48.2254 34.94 49.4974Z" fill="#FFCF2D"/>
<path d="M51.4781 49.4974C51.4781 50.7693 50.6466 51.7233 49.5379 51.7233C48.4292 51.7233 47.5977 50.7693 47.5977 49.4974C47.5977 48.2254 48.4292 47.2715 49.5379 47.2715C50.6466 47.2715 51.4781 48.2254 51.4781 49.4974Z" fill="#FFCF2D"/>
<path d="M67.9239 49.4974C67.9239 50.7693 67.0924 51.7233 65.9837 51.7233C64.875 51.7233 64.0435 50.7693 64.0435 49.4974C64.0435 48.2254 64.875 47.2715 65.9837 47.2715C67.0924 47.2715 67.9239 48.2254 67.9239 49.4974Z" fill="#FFCF2D"/>
<path d="M84.462 49.4974C84.462 50.7693 83.6305 51.7233 82.5218 51.7233C81.4131 51.7233 80.5815 50.7693 80.5815 49.4974C80.5815 48.2254 81.4131 47.2715 82.5218 47.2715C83.6305 47.2715 84.462 48.2254 84.462 49.4974Z" fill="#FFCF2D"/>
<path d="M101 49.4973C101 50.7692 100.169 51.7231 99.0598 51.7231C97.9511 51.7231 97.1196 50.7692 97.1196 49.4973C97.1196 48.2254 97.9511 47.2715 99.0598 47.2715C100.076 47.2715 101 48.2254 101 49.4973Z" fill="#FFCF2D"/>
<path d="M1.86432 2.22583C1.86432 3.49773 1.0328 4.45166 -0.075899 4.45166C-1.18459 4.45166 -2.01611 3.49773 -2.01611 2.22583C-2.01611 0.953927 -1.0922 0 -0.075899 0C1.0328 0 1.86432 0.953927 1.86432 2.22583Z" fill="#FFCF2D"/>
<path d="M18.4024 2.22583C18.4024 3.49773 17.5709 4.45166 16.4622 4.45166C15.3535 4.45166 14.522 3.49773 14.522 2.22583C14.522 0.953927 15.4459 0 16.4622 0C17.4785 0 18.4024 0.953927 18.4024 2.22583Z" fill="#FFCF2D"/>
<path d="M34.94 2.22583C34.94 3.49773 34.1085 4.45166 32.9998 4.45166C31.8911 4.45166 31.0596 3.49773 31.0596 2.22583C31.0596 0.953927 31.8911 0 32.9998 0C34.0161 0 34.94 0.953927 34.94 2.22583Z" fill="#FFCF2D"/>
<path d="M51.4781 2.22583C51.4781 3.49773 50.6466 4.45166 49.5379 4.45166C48.4292 4.45166 47.5977 3.49773 47.5977 2.22583C47.5977 0.953927 48.4292 0 49.5379 0C50.6466 0 51.4781 0.953927 51.4781 2.22583Z" fill="#FFCF2D"/>
<path d="M67.924 2.22577C67.924 3.49764 67.0924 4.45154 65.9837 4.45154C64.875 4.45154 64.0435 3.49764 64.0435 2.22577C64.0435 0.953901 64.875 0 65.9837 0C67.0924 0 67.924 0.953901 67.924 2.22577Z" fill="#FFCF2D"/>
<path d="M84.462 2.22583C84.462 3.49773 83.6305 4.45166 82.5218 4.45166C81.4131 4.45166 80.5815 3.49773 80.5815 2.22583C80.5815 0.953927 81.4131 0 82.5218 0C83.6305 0 84.462 0.953927 84.462 2.22583Z" fill="#FFCF2D"/>
<path d="M101 2.22583C101 3.49773 100.169 4.45166 99.0598 4.45166C97.9511 4.45166 97.1196 3.49773 97.1196 2.22583C97.1196 0.953927 97.9511 0 99.0598 0C100.076 0 101 0.953927 101 2.22583Z" fill="#FFCF2D"/>
<path d="M1.86432 18.0189C1.86432 19.2908 1.0328 20.2448 -0.075899 20.2448C-1.18459 20.2448 -2.01611 19.2908 -2.01611 18.0189C-2.01611 16.7469 -1.18459 15.793 -0.075899 15.793C1.0328 15.793 1.86432 16.7469 1.86432 18.0189Z" fill="#FFCF2D"/>
<path d="M18.4024 18.0188C18.4024 19.2907 17.5709 20.2446 16.4622 20.2446C15.3535 20.2446 14.522 19.2907 14.522 18.0188C14.522 16.7469 15.3535 15.793 16.4622 15.793C17.5709 15.793 18.4024 16.7469 18.4024 18.0188Z" fill="#FFCF2D"/>
<path d="M34.94 18.0189C34.94 19.2908 34.1085 20.2448 32.9998 20.2448C31.8911 20.2448 31.0596 19.2908 31.0596 18.0189C31.0596 16.7469 31.8911 15.793 32.9998 15.793C34.0161 15.793 34.94 16.7469 34.94 18.0189Z" fill="#FFCF2D"/>
<path d="M51.4781 18.0189C51.4781 19.2908 50.6466 20.2448 49.5379 20.2448C48.4292 20.2448 47.5977 19.2908 47.5977 18.0189C47.5977 16.7469 48.4292 15.793 49.5379 15.793C50.6466 15.793 51.4781 16.7469 51.4781 18.0189Z" fill="#FFCF2D"/>
<path d="M67.9239 18.0189C67.9239 19.2908 67.0924 20.2448 65.9837 20.2448C64.875 20.2448 64.0435 19.2908 64.0435 18.0189C64.0435 16.7469 64.875 15.793 65.9837 15.793C67.0924 15.793 67.9239 16.7469 67.9239 18.0189Z" fill="#FFCF2D"/>
<path d="M84.462 18.0189C84.462 19.2908 83.6305 20.2448 82.5218 20.2448C81.4131 20.2448 80.5815 19.2908 80.5815 18.0189C80.5815 16.7469 81.4131 15.793 82.5218 15.793C83.6305 15.793 84.462 16.7469 84.462 18.0189Z" fill="#FFCF2D"/>
<path d="M101 18.0189C101 19.2908 100.169 20.2448 99.0598 20.2448C97.9511 20.2448 97.1196 19.2908 97.1196 18.0189C97.1196 16.7469 97.9511 15.793 99.0598 15.793C100.076 15.793 101 16.7469 101 18.0189Z" fill="#FFCF2D"/>
<path d="M1.86432 65.1848C1.86432 66.4566 1.0328 67.4105 -0.075899 67.4105C-1.18459 67.4105 -2.01611 66.4566 -2.01611 65.1848C-2.01611 63.9129 -1.18459 62.959 -0.075899 62.959C1.0328 62.959 1.86432 64.0189 1.86432 65.1848Z" fill="#FFCF2D"/>
<path d="M18.4024 65.1848C18.4024 66.4566 17.5709 67.4105 16.4622 67.4105C15.3535 67.4105 14.522 66.4566 14.522 65.1848C14.522 63.9129 15.3535 62.959 16.4622 62.959C17.5709 62.959 18.4024 64.0189 18.4024 65.1848Z" fill="#FFCF2D"/>
<path d="M34.94 65.1848C34.94 66.4566 34.1085 67.4105 32.9998 67.4105C31.8911 67.4105 31.0596 66.4566 31.0596 65.1848C31.0596 63.9129 31.8911 62.959 32.9998 62.959C34.0161 62.959 34.94 64.0189 34.94 65.1848Z" fill="#FFCF2D"/>
<path d="M51.4781 65.1848C51.4781 66.4566 50.6466 67.4105 49.5379 67.4105C48.4292 67.4105 47.5977 66.4566 47.5977 65.1848C47.5977 63.9129 48.4292 62.959 49.5379 62.959C50.6466 62.959 51.4781 64.0189 51.4781 65.1848Z" fill="#FFCF2D"/>
<path d="M67.9239 65.1848C67.9239 66.4566 67.0924 67.4105 65.9837 67.4105C64.875 67.4105 64.0435 66.4566 64.0435 65.1848C64.0435 63.9129 64.875 62.959 65.9837 62.959C67.0924 62.959 67.9239 64.0189 67.9239 65.1848Z" fill="#FFCF2D"/>
<path d="M84.462 65.1848C84.462 66.4566 83.6305 67.4105 82.5218 67.4105C81.4131 67.4105 80.5815 66.4566 80.5815 65.1848C80.5815 63.9129 81.4131 62.959 82.5218 62.959C83.6305 62.959 84.462 64.0189 84.462 65.1848Z" fill="#FFCF2D"/>
<path d="M101 65.1847C101 66.4565 100.169 67.4104 99.0598 67.4104C97.9511 67.4104 97.1196 66.4565 97.1196 65.1847C97.1196 63.9129 97.9511 62.959 99.0598 62.959C100.076 62.959 101 64.0188 101 65.1847Z" fill="#FFCF2D"/>
<path d="M1.86432 80.9777C1.86432 82.2495 1.0328 83.2034 -0.075899 83.2034C-1.18459 83.2034 -2.01611 82.2495 -2.01611 80.9777C-2.01611 79.7058 -1.18459 78.752 -0.075899 78.752C1.0328 78.752 1.86432 79.7058 1.86432 80.9777Z" fill="#FFCF2D"/>
<path d="M16.4622 83.2034C17.5337 83.2034 18.4024 82.2069 18.4024 80.9777C18.4024 79.7484 17.5337 78.752 16.4622 78.752C15.3906 78.752 14.522 79.7484 14.522 80.9777C14.522 82.2069 15.3906 83.2034 16.4622 83.2034Z" fill="#FFCF2D"/>
<path d="M34.94 80.9777C34.94 82.2495 34.1085 83.2034 32.9998 83.2034C31.8911 83.2034 31.0596 82.2495 31.0596 80.9777C31.0596 79.7058 31.8911 78.752 32.9998 78.752C34.0161 78.752 34.94 79.7058 34.94 80.9777Z" fill="#FFCF2D"/>
<path d="M51.4781 80.9777C51.4781 82.2495 50.6466 83.2034 49.5379 83.2034C48.4292 83.2034 47.5977 82.2495 47.5977 80.9777C47.5977 79.7058 48.4292 78.752 49.5379 78.752C50.6466 78.752 51.4781 79.7058 51.4781 80.9777Z" fill="#FFCF2D"/>
<path d="M67.9239 80.9777C67.9239 82.2495 67.0924 83.2034 65.9837 83.2034C64.875 83.2034 64.0435 82.2495 64.0435 80.9777C64.0435 79.7058 64.875 78.752 65.9837 78.752C67.0924 78.752 67.9239 79.7058 67.9239 80.9777Z" fill="#FFCF2D"/>
<path d="M82.5218 83.2032C83.5933 83.2032 84.462 82.2068 84.462 80.9776C84.462 79.7484 83.5933 78.752 82.5218 78.752C81.4502 78.752 80.5815 79.7484 80.5815 80.9776C80.5815 82.2068 81.4502 83.2032 82.5218 83.2032Z" fill="#FFCF2D"/>
<path d="M101 80.9777C101 82.2495 100.169 83.2034 99.0599 83.2034C97.9512 83.2034 97.1196 82.2495 97.1196 80.9777C97.1196 79.7058 97.9512 78.752 99.0599 78.752C100.076 78.752 101 79.7058 101 80.9777Z" fill="#FFCF2D"/>
<path d="M1.86432 96.7689C1.86432 98.0408 1.0328 98.9948 -0.075899 98.9948C-1.18459 98.9948 -2.01611 98.0408 -2.01611 96.7689C-2.01611 95.4969 -1.18459 94.543 -0.075899 94.543C1.0328 94.543 1.86432 95.4969 1.86432 96.7689Z" fill="#FFCF2D"/>
<path d="M18.4024 96.7689C18.4024 98.0408 17.5709 98.9948 16.4622 98.9948C15.3535 98.9948 14.522 98.0408 14.522 96.7689C14.522 95.4969 15.3535 94.543 16.4622 94.543C17.5709 94.543 18.4024 95.4969 18.4024 96.7689Z" fill="#FFCF2D"/>
<path d="M34.94 96.7689C34.94 98.0408 34.1085 98.9948 32.9998 98.9948C31.8911 98.9948 31.0596 98.0408 31.0596 96.7689C31.0596 95.4969 31.8911 94.543 32.9998 94.543C34.0161 94.543 34.94 95.4969 34.94 96.7689Z" fill="#FFCF2D"/>
<path d="M51.4781 96.7689C51.4781 98.0408 50.6466 98.9948 49.5379 98.9948C48.4292 98.9948 47.5977 98.0408 47.5977 96.7689C47.5977 95.4969 48.4292 94.543 49.5379 94.543C50.6466 94.543 51.4781 95.4969 51.4781 96.7689Z" fill="#FFCF2D"/>
<path d="M67.9239 96.7689C67.9239 98.0408 67.0924 98.9948 65.9837 98.9948C64.875 98.9948 64.0435 98.0408 64.0435 96.7689C64.0435 95.4969 64.875 94.543 65.9837 94.543C67.0924 94.543 67.9239 95.4969 67.9239 96.7689Z" fill="#FFCF2D"/>
<path d="M84.462 96.7689C84.462 98.0408 83.6304 98.9948 82.5218 98.9948C81.4131 98.9948 80.5815 98.0408 80.5815 96.7689C80.5815 95.4969 81.4131 94.543 82.5218 94.543C83.6304 94.543 84.462 95.4969 84.462 96.7689Z" fill="#FFCF2D"/>
<path d="M101 96.7689C101 98.0408 100.169 98.9948 99.0599 98.9948C97.9512 98.9948 97.1196 98.0408 97.1196 96.7689C97.1196 95.4969 97.9512 94.543 99.0599 94.543C100.076 94.543 101 95.4969 101 96.7689Z" fill="#FFCF2D"/>
<path d="M1.86432 112.456C1.86432 113.728 1.0328 114.682 -0.075899 114.682C-1.18459 114.682 -2.01611 113.728 -2.01611 112.456C-2.01611 111.184 -1.18459 110.23 -0.075899 110.23C1.0328 110.23 1.86432 111.29 1.86432 112.456Z" fill="#FFCF2D"/>
<path d="M18.4024 112.456C18.4024 113.728 17.5709 114.682 16.4622 114.682C15.3535 114.682 14.522 113.728 14.522 112.456C14.522 111.184 15.3535 110.23 16.4622 110.23C17.5709 110.23 18.4024 111.29 18.4024 112.456Z" fill="#FFCF2D"/>
<path d="M34.94 112.456C34.94 113.728 34.1085 114.682 32.9998 114.682C31.8911 114.682 31.0596 113.728 31.0596 112.456C31.0596 111.184 31.8911 110.23 32.9998 110.23C34.0161 110.23 34.94 111.29 34.94 112.456Z" fill="#FFCF2D"/>
<path d="M51.4781 112.456C51.4781 113.728 50.6465 114.682 49.5379 114.682C48.4292 114.682 47.5977 113.728 47.5977 112.456C47.5977 111.184 48.4292 110.23 49.5379 110.23C50.6465 110.23 51.4781 111.29 51.4781 112.456Z" fill="#FFCF2D"/>
<path d="M67.9239 112.456C67.9239 113.728 67.0924 114.682 65.9837 114.682C64.875 114.682 64.0435 113.728 64.0435 112.456C64.0435 111.184 64.875 110.23 65.9837 110.23C67.0924 110.23 67.9239 111.29 67.9239 112.456Z" fill="#FFCF2D"/>
<path d="M84.462 112.456C84.462 113.728 83.6305 114.682 82.5218 114.682C81.4131 114.682 80.5815 113.728 80.5815 112.456C80.5815 111.184 81.4131 110.23 82.5218 110.23C83.6305 110.23 84.462 111.29 84.462 112.456Z" fill="#FFCF2D"/>
<path d="M101 112.456C101 113.728 100.169 114.682 99.0599 114.682C97.9512 114.682 97.1196 113.728 97.1196 112.456C97.1196 111.184 97.9512 110.23 99.0599 110.23C100.076 110.23 101 111.29 101 112.456Z" fill="#FFCF2D"/>
</svg>
